# xmcd
#
# Track frame offsets: 
#        150
#        9682
#        29563
#        48073
#        66324
#        123769
#        142314
#        175715
#        212337
#
# Disc length: 3196 seconds
#
# Revision: 0
# Processed by: cddbd v1.5.2PL0 Copyright (c) Steve Scherf et al.
# Submitted via: ExactAudioCopy v0.95b3
#
DISCID=7a0c7a09
DTITLE=Jimi Hendrix  - Rockin' The USA Vol.1- Disc 4
DYEAR=1900
DGENRE=
TTITLE0=Sgt Pepper's Lonely Hearts Club Band
TTITLE1=Can You Please Crawl Out Your Window
TTITLE2=Wind Cries Mary,The
TTITLE3=Fire
TTITLE4=Catfish Blues
TTITLE5=Foxy Lady
TTITLE6=Hey Joe
TTITLE7=Purple Haze
TTITLE8=Wild Thing
EXTD=
EXTT0=
EXTT1=
EXTT2=
EXTT3=
EXTT4=
EXTT5=
EXTT6=
EXTT7=
EXTT8=
PLAYORDER=
